<svg xmlns="http://www.w3.org/2000/svg" viewBox="0 0 1440 320"><path fill="#0353A4" fill-opacity="1" d="M0,256L30,240C60,224,120,192,180,197.3C240,203,300,245,360,240C420,235,480,181,540,165.3C600,149,660,171,720,192C780,213,840,235,900,218.7C960,203,1020,149,1080,144C1140,139,1200,181,1260,213.3C1320,245,1380,267,1410,277.3L1440,288L1440,0L1410,0C1380,0,1320,0,1260,0C1200,0,1140,0,1080,0C1020,0,960,0,900,0C840,0,780,0,720,0C660,0,600,0,540,0C480,0,420,0,360,0C300,0,240,0,180,0C120,0,60,0,30,0L0,0Z"></path></svg>