<svg width="84" height="68" viewBox="0 0 84 68" fill="none" xmlns="http://www.w3.org/2000/svg">
<path d="M75.3334 0.666748H8.66668C4.07084 0.666748 0.333344 4.40425 0.333344 9.00008V59.0001C0.333344 63.5959 4.07084 67.3334 8.66668 67.3334H75.3334C79.9292 67.3334 83.6667 63.5959 83.6667 59.0001V9.00008C83.6667 4.40425 79.9292 0.666748 75.3334 0.666748ZM75.3334 9.00008V11.1292L42 37.0584L8.66668 11.1334V9.00008H75.3334ZM8.66668 59.0001V21.6834L39.4417 45.6209C40.1713 46.194 41.0722 46.5055 42 46.5055C42.9278 46.5055 43.8287 46.194 44.5583 45.6209L75.3334 21.6834L75.3417 59.0001H8.66668Z" fill="white"/>
</svg>
