<svg width="450" height="378" viewBox="0 0 450 378" fill="none" xmlns="http://www.w3.org/2000/svg">
<g clip-path="url(#clip0_543_59)">
<path d="M262.124 66.4872C270.558 66.4872 277.395 58.6086 277.395 48.8899C277.395 39.1711 270.558 31.2926 262.124 31.2926C253.69 31.2926 246.854 39.1711 246.854 48.8899C246.854 58.6086 253.69 66.4872 262.124 66.4872Z" fill="#F2F2F2"/>
<path d="M380.584 327.651C403.283 307.729 414.124 274.251 407.337 242.315C407.168 241.521 406.99 240.73 406.803 239.94C402.303 220.983 391.171 202.966 374.947 196.909C361.324 191.823 346.454 195.734 332.242 193.712C304.342 189.742 282.713 163.729 267.494 136.493C252.274 109.257 240.578 78.7707 220.355 56.2699C187.02 19.1813 132.644 11.1961 91.3139 35.338C49.9841 59.48 23.6574 113.041 24.7802 166.421C25.903 219.801 53.4028 270.837 93.3393 297.914C108.01 307.861 124.979 314.908 141.866 312.442C156.519 310.303 169.832 301.23 184.416 298.536C207.345 294.302 230.128 306.248 249.96 320.169C269.792 334.09 288.948 350.591 311.484 357.045C333.367 363.312 360.477 345.299 380.584 327.651Z" fill="#F2E800"/>
<path d="M347.973 36.459C347.475 36.0767 346.972 35.7142 346.474 35.3452C332.091 24.7447 316.674 16.1331 300.543 9.6881L296.803 69.1482H273.091V1.00832C271.598 0.652434 270.094 0.316317 268.59 -3.05176e-05V69.1482H240.411C224.898 69.1482 210.021 62.0469 199.052 49.4067C188.083 36.7664 181.921 19.6226 181.921 1.74655C180.411 2.12221 178.912 2.52417 177.414 2.95256V69.1482H154.463L150.9 12.4496C134.322 19.7758 118.584 29.4102 104.036 41.1383C103.785 41.336 103.533 41.5403 103.287 41.738C102.023 42.7596 100.776 43.8009 99.5352 44.8554V271.696H167.176L165.981 252.616L159.404 147.859H291.855L285.278 252.616L284.083 271.696H350.975V38.7525C349.98 37.9748 348.979 37.2103 347.973 36.459ZM177.414 130.559H158.317L154.789 74.3415H177.414V130.559ZM268.59 130.559H236.516V129.445C236.516 128.91 236.425 128.38 236.247 127.885C236.069 127.39 235.808 126.941 235.479 126.563C235.15 126.185 234.76 125.885 234.33 125.68C233.901 125.476 233.441 125.371 232.976 125.372H219.033C218.568 125.372 218.109 125.477 217.68 125.682C217.251 125.886 216.861 126.186 216.533 126.565C216.205 126.943 215.944 127.392 215.767 127.886C215.589 128.381 215.498 128.91 215.498 129.445V130.559H181.921V74.3415H268.59V130.559ZM273.091 130.559V74.3415H296.477L292.948 130.559H273.091Z" fill="#202020"/>
<path d="M0 286.222C4.96844 293.006 10.3424 299.382 16.0825 305.302L433.918 305.961C439.658 300.041 445.032 293.665 450 286.881L0 286.222Z" fill="#3F3D56"/>
<path d="M283.347 225.128V281.612C283.348 282.331 283.596 283.022 284.038 283.531C284.48 284.04 285.079 284.326 285.703 284.326H358.34C358.965 284.326 359.563 284.04 360.005 283.531C360.447 283.022 360.695 282.331 360.696 281.612V225.128C360.694 224.409 360.445 223.72 360.004 223.211C359.562 222.703 358.964 222.417 358.34 222.416H285.703C285.079 222.417 284.481 222.703 284.039 223.211C283.598 223.72 283.349 224.409 283.347 225.128Z" fill="#3F3D56"/>
<path d="M285.052 225.831V280.915C285.052 281.299 285.185 281.668 285.421 281.94C285.657 282.212 285.977 282.365 286.311 282.366H357.735C358.069 282.365 358.389 282.212 358.625 281.94C358.861 281.668 358.994 281.299 358.994 280.915V225.831C358.994 225.446 358.862 225.076 358.626 224.804C358.39 224.531 358.069 224.378 357.735 224.377H286.311C285.976 224.378 285.656 224.531 285.42 224.804C285.184 225.076 285.052 225.446 285.052 225.831Z" fill="#8E48FF"/>
<path d="M281.828 292.628C281.961 292.82 282.131 292.975 282.323 293.081C282.516 293.187 282.726 293.242 282.94 293.24H360.717C360.929 293.24 361.139 293.185 361.331 293.08C361.523 292.974 361.692 292.82 361.826 292.63C361.96 292.44 362.056 292.217 362.106 291.979C362.156 291.741 362.159 291.493 362.116 291.253L360.908 284.644C360.858 284.375 360.751 284.124 360.595 283.915C360.439 283.706 360.241 283.544 360.017 283.446C359.855 283.373 359.683 283.336 359.509 283.336H284.142C283.969 283.336 283.796 283.373 283.635 283.446C283.411 283.544 283.213 283.706 283.057 283.915C282.901 284.124 282.793 284.375 282.743 284.644L281.536 291.253C281.493 291.493 281.497 291.74 281.548 291.978C281.598 292.216 281.694 292.438 281.828 292.628Z" fill="#2F2E41"/>
<path d="M356.841 286.182H358.678C358.832 286.182 358.957 286.038 358.957 285.861V284.848C358.957 284.67 358.832 284.526 358.678 284.526H356.841C356.687 284.526 356.562 284.67 356.562 284.848V285.861C356.562 286.038 356.687 286.182 356.841 286.182Z" fill="#3F3D56"/>
<path d="M352.05 286.182H353.887C354.041 286.182 354.166 286.038 354.166 285.861V284.848C354.166 284.67 354.041 284.526 353.887 284.526H352.05C351.896 284.526 351.771 284.67 351.771 284.848V285.861C351.771 286.038 351.896 286.182 352.05 286.182Z" fill="#3F3D56"/>
<path d="M347.259 286.182H349.096C349.25 286.182 349.375 286.038 349.375 285.861V284.848C349.375 284.67 349.25 284.526 349.096 284.526H347.259C347.105 284.526 346.98 284.67 346.98 284.848V285.861C346.98 286.038 347.105 286.182 347.259 286.182Z" fill="#3F3D56"/>
<path d="M342.468 286.182H344.305C344.459 286.182 344.584 286.038 344.584 285.861V284.848C344.584 284.67 344.459 284.526 344.305 284.526H342.468C342.313 284.526 342.189 284.67 342.189 284.848V285.861C342.189 286.038 342.313 286.182 342.468 286.182Z" fill="#3F3D56"/>
<path d="M337.677 286.182H339.514C339.668 286.182 339.793 286.038 339.793 285.861V284.848C339.793 284.67 339.668 284.526 339.514 284.526H337.677C337.523 284.526 337.397 284.67 337.397 284.848V285.861C337.397 286.038 337.523 286.182 337.677 286.182Z" fill="#3F3D56"/>
<path d="M332.886 286.182H334.723C334.877 286.182 335.002 286.038 335.002 285.861V284.848C335.002 284.67 334.877 284.526 334.723 284.526H332.886C332.731 284.526 332.606 284.67 332.606 284.848V285.861C332.606 286.038 332.731 286.182 332.886 286.182Z" fill="#3F3D56"/>
<path d="M328.095 286.182H329.932C330.086 286.182 330.211 286.038 330.211 285.861V284.848C330.211 284.67 330.086 284.526 329.932 284.526H328.095C327.94 284.526 327.815 284.67 327.815 284.848V285.861C327.815 286.038 327.94 286.182 328.095 286.182Z" fill="#3F3D56"/>
<path d="M323.304 286.182H325.141C325.295 286.182 325.42 286.038 325.42 285.861V284.848C325.42 284.67 325.295 284.526 325.141 284.526H323.304C323.15 284.526 323.025 284.67 323.025 284.848V285.861C323.025 286.038 323.15 286.182 323.304 286.182Z" fill="#3F3D56"/>
<path d="M318.513 286.182H320.35C320.504 286.182 320.629 286.038 320.629 285.861V284.848C320.629 284.67 320.504 284.526 320.35 284.526H318.513C318.359 284.526 318.234 284.67 318.234 284.848V285.861C318.234 286.038 318.359 286.182 318.513 286.182Z" fill="#3F3D56"/>
<path d="M313.722 286.182H315.559C315.713 286.182 315.838 286.038 315.838 285.861V284.848C315.838 284.67 315.713 284.526 315.559 284.526H313.722C313.568 284.526 313.443 284.67 313.443 284.848V285.861C313.443 286.038 313.568 286.182 313.722 286.182Z" fill="#3F3D56"/>
<path d="M308.931 286.182H310.768C310.922 286.182 311.047 286.038 311.047 285.861V284.848C311.047 284.67 310.922 284.526 310.768 284.526H308.931C308.777 284.526 308.652 284.67 308.652 284.848V285.861C308.652 286.038 308.777 286.182 308.931 286.182Z" fill="#3F3D56"/>
<path d="M304.14 286.182H305.977C306.131 286.182 306.256 286.038 306.256 285.861V284.848C306.256 284.67 306.131 284.526 305.977 284.526H304.14C303.986 284.526 303.861 284.67 303.861 284.848V285.861C303.861 286.038 303.986 286.182 304.14 286.182Z" fill="#3F3D56"/>
<path d="M299.349 286.182H301.186C301.34 286.182 301.465 286.038 301.465 285.861V284.848C301.465 284.67 301.34 284.526 301.186 284.526H299.349C299.195 284.526 299.07 284.67 299.07 284.848V285.861C299.07 286.038 299.195 286.182 299.349 286.182Z" fill="#3F3D56"/>
<path d="M294.558 286.182H296.395C296.549 286.182 296.674 286.038 296.674 285.861V284.848C296.674 284.67 296.549 284.526 296.395 284.526H294.558C294.404 284.526 294.279 284.67 294.279 284.848V285.861C294.279 286.038 294.404 286.182 294.558 286.182Z" fill="#3F3D56"/>
<path d="M289.767 286.182H291.604C291.758 286.182 291.883 286.038 291.883 285.861V284.848C291.883 284.67 291.758 284.526 291.604 284.526H289.767C289.613 284.526 289.488 284.67 289.488 284.848V285.861C289.488 286.038 289.613 286.182 289.767 286.182Z" fill="#3F3D56"/>
<path d="M284.976 286.182H286.813C286.967 286.182 287.092 286.038 287.092 285.861V284.848C287.092 284.67 286.967 284.526 286.813 284.526H284.976C284.822 284.526 284.697 284.67 284.697 284.848V285.861C284.697 286.038 284.822 286.182 284.976 286.182Z" fill="#3F3D56"/>
<path d="M356.897 288.943H358.734C358.889 288.943 359.014 288.799 359.014 288.621V287.608C359.014 287.43 358.889 287.286 358.734 287.286H356.897C356.743 287.286 356.618 287.43 356.618 287.608V288.621C356.618 288.799 356.743 288.943 356.897 288.943Z" fill="#3F3D56"/>
<path d="M352.106 288.943H353.943C354.098 288.943 354.223 288.799 354.223 288.621V287.608C354.223 287.43 354.098 287.286 353.943 287.286H352.106C351.952 287.286 351.827 287.43 351.827 287.608V288.621C351.827 288.799 351.952 288.943 352.106 288.943Z" fill="#3F3D56"/>
<path d="M347.315 288.943H349.152C349.307 288.943 349.432 288.799 349.432 288.621V287.608C349.432 287.43 349.307 287.286 349.152 287.286H347.315C347.161 287.286 347.036 287.43 347.036 287.608V288.621C347.036 288.799 347.161 288.943 347.315 288.943Z" fill="#3F3D56"/>
<path d="M342.524 288.943H344.361C344.516 288.943 344.641 288.799 344.641 288.621V287.608C344.641 287.43 344.516 287.286 344.361 287.286H342.524C342.37 287.286 342.245 287.43 342.245 287.608V288.621C342.245 288.799 342.37 288.943 342.524 288.943Z" fill="#3F3D56"/>
<path d="M337.733 288.943H339.57C339.725 288.943 339.85 288.799 339.85 288.621V287.608C339.85 287.43 339.725 287.286 339.57 287.286H337.733C337.579 287.286 337.454 287.43 337.454 287.608V288.621C337.454 288.799 337.579 288.943 337.733 288.943Z" fill="#3F3D56"/>
<path d="M332.942 288.943H334.779C334.934 288.943 335.059 288.799 335.059 288.621V287.608C335.059 287.43 334.934 287.286 334.779 287.286H332.942C332.788 287.286 332.663 287.43 332.663 287.608V288.621C332.663 288.799 332.788 288.943 332.942 288.943Z" fill="#3F3D56"/>
<path d="M328.151 288.943H329.988C330.143 288.943 330.268 288.799 330.268 288.621V287.608C330.268 287.43 330.143 287.286 329.988 287.286H328.151C327.997 287.286 327.872 287.43 327.872 287.608V288.621C327.872 288.799 327.997 288.943 328.151 288.943Z" fill="#3F3D56"/>
<path d="M323.361 288.943H325.198C325.352 288.943 325.477 288.799 325.477 288.621V287.608C325.477 287.43 325.352 287.286 325.198 287.286H323.361C323.206 287.286 323.081 287.43 323.081 287.608V288.621C323.081 288.799 323.206 288.943 323.361 288.943Z" fill="#3F3D56"/>
<path d="M318.569 288.943H320.406C320.561 288.943 320.686 288.799 320.686 288.621V287.608C320.686 287.43 320.561 287.286 320.406 287.286H318.569C318.415 287.286 318.29 287.43 318.29 287.608V288.621C318.29 288.799 318.415 288.943 318.569 288.943Z" fill="#3F3D56"/>
<path d="M313.778 288.943H315.616C315.77 288.943 315.895 288.799 315.895 288.621V287.608C315.895 287.43 315.77 287.286 315.616 287.286H313.778C313.624 287.286 313.499 287.43 313.499 287.608V288.621C313.499 288.799 313.624 288.943 313.778 288.943Z" fill="#3F3D56"/>
<path d="M308.987 288.943H310.825C310.979 288.943 311.104 288.799 311.104 288.621V287.608C311.104 287.43 310.979 287.286 310.825 287.286H308.987C308.833 287.286 308.708 287.43 308.708 287.608V288.621C308.708 288.799 308.833 288.943 308.987 288.943Z" fill="#3F3D56"/>
<path d="M304.196 288.943H306.034C306.188 288.943 306.313 288.799 306.313 288.621V287.608C306.313 287.43 306.188 287.286 306.034 287.286H304.196C304.042 287.286 303.917 287.43 303.917 287.608V288.621C303.917 288.799 304.042 288.943 304.196 288.943Z" fill="#3F3D56"/>
<path d="M299.405 288.943H301.243C301.397 288.943 301.522 288.799 301.522 288.621V287.608C301.522 287.43 301.397 287.286 301.243 287.286H299.405C299.251 287.286 299.126 287.43 299.126 287.608V288.621C299.126 288.799 299.251 288.943 299.405 288.943Z" fill="#3F3D56"/>
<path d="M294.614 288.943H296.451C296.606 288.943 296.731 288.799 296.731 288.621V287.608C296.731 287.43 296.606 287.286 296.451 287.286H294.614C294.46 287.286 294.335 287.43 294.335 287.608V288.621C294.335 288.799 294.46 288.943 294.614 288.943Z" fill="#3F3D56"/>
<path d="M289.824 288.943H291.661C291.815 288.943 291.94 288.799 291.94 288.621V287.608C291.94 287.43 291.815 287.286 291.661 287.286H289.824C289.669 287.286 289.544 287.43 289.544 287.608V288.621C289.544 288.799 289.669 288.943 289.824 288.943Z" fill="#3F3D56"/>
<path d="M285.033 288.943H286.87C287.024 288.943 287.149 288.799 287.149 288.621V287.608C287.149 287.43 287.024 287.286 286.87 287.286H285.033C284.878 287.286 284.753 287.43 284.753 287.608V288.621C284.753 288.799 284.878 288.943 285.033 288.943Z" fill="#3F3D56"/>
<path d="M317.132 292.255H335.738C335.892 292.255 336.017 292.111 336.017 291.934V290.921C336.017 290.743 335.892 290.599 335.738 290.599H317.132C316.978 290.599 316.853 290.743 316.853 290.921V291.934C316.853 292.111 316.978 292.255 317.132 292.255Z" fill="#3F3D56"/>
<path d="M297.42 236.428H295.794C295.301 236.428 294.901 236.889 294.901 237.457C294.901 238.025 295.301 238.486 295.794 238.486H297.42C297.913 238.486 298.313 238.025 298.313 237.457C298.313 236.889 297.913 236.428 297.42 236.428Z" fill="white"/>
<path d="M316.021 236.428H314.394C313.901 236.428 313.501 236.889 313.501 237.457C313.501 238.025 313.901 238.486 314.394 238.486H316.021C316.514 238.486 316.913 238.025 316.913 237.457C316.913 236.889 316.514 236.428 316.021 236.428Z" fill="white"/>
<path d="M321.291 236.428H319.665C319.171 236.428 318.772 236.889 318.772 237.457C318.772 238.025 319.171 238.486 319.665 238.486H321.291C321.784 238.486 322.184 238.025 322.184 237.457C322.184 236.889 321.784 236.428 321.291 236.428Z" fill="white"/>
<path d="M310.961 236.256H300.853C300.36 236.256 299.96 236.717 299.96 237.285C299.96 237.853 300.36 238.314 300.853 238.314H310.961C311.454 238.314 311.854 237.853 311.854 237.285C311.854 236.717 311.454 236.256 310.961 236.256Z" fill="white"/>
<path d="M335.762 236.256H325.654C325.161 236.256 324.761 236.717 324.761 237.285C324.761 237.853 325.161 238.314 325.654 238.314H335.762C336.255 238.314 336.655 237.853 336.655 237.285C336.655 236.717 336.255 236.256 335.762 236.256Z" fill="white"/>
<path d="M302.38 241.072H300.754C300.261 241.072 299.861 241.533 299.861 242.101C299.861 242.669 300.261 243.13 300.754 243.13H302.38C302.873 243.13 303.273 242.669 303.273 242.101C303.273 241.533 302.873 241.072 302.38 241.072Z" fill="white"/>
<path d="M320.981 241.072H319.355C318.862 241.072 318.462 241.533 318.462 242.101C318.462 242.669 318.862 243.13 319.355 243.13H320.981C321.474 243.13 321.874 242.669 321.874 242.101C321.874 241.533 321.474 241.072 320.981 241.072Z" fill="white"/>
<path d="M326.251 241.072H324.625C324.132 241.072 323.732 241.533 323.732 242.101C323.732 242.669 324.132 243.13 324.625 243.13H326.251C326.744 243.13 327.144 242.669 327.144 242.101C327.144 241.533 326.744 241.072 326.251 241.072Z" fill="white"/>
<path d="M315.922 240.9H305.813C305.32 240.9 304.921 241.361 304.921 241.929C304.921 242.498 305.32 242.958 305.813 242.958H315.922C316.415 242.958 316.814 242.498 316.814 241.929C316.814 241.361 316.415 240.9 315.922 240.9Z" fill="white"/>
<path d="M340.722 240.9H330.614C330.121 240.9 329.721 241.361 329.721 241.929C329.721 242.498 330.121 242.958 330.614 242.958H340.722C341.215 242.958 341.615 242.498 341.615 241.929C341.615 241.361 341.215 240.9 340.722 240.9Z" fill="white"/>
<path d="M307.34 245.716H305.714C305.221 245.716 304.821 246.177 304.821 246.745C304.821 247.313 305.221 247.774 305.714 247.774H307.34C307.834 247.774 308.233 247.313 308.233 246.745C308.233 246.177 307.834 245.716 307.34 245.716Z" fill="white"/>
<path d="M325.941 245.716H324.315C323.822 245.716 323.422 246.177 323.422 246.745C323.422 247.313 323.822 247.774 324.315 247.774H325.941C326.434 247.774 326.834 247.313 326.834 246.745C326.834 246.177 326.434 245.716 325.941 245.716Z" fill="white"/>
<path d="M331.211 245.716H329.585C329.092 245.716 328.692 246.177 328.692 246.745C328.692 247.313 329.092 247.774 329.585 247.774H331.211C331.704 247.774 332.104 247.313 332.104 246.745C332.104 246.177 331.704 245.716 331.211 245.716Z" fill="white"/>
<path d="M320.882 245.545H310.774C310.281 245.545 309.881 246.005 309.881 246.574C309.881 247.142 310.281 247.602 310.774 247.602H320.882C321.375 247.602 321.775 247.142 321.775 246.574C321.775 246.005 321.375 245.545 320.882 245.545Z" fill="white"/>
<path d="M345.683 245.545H335.574C335.081 245.545 334.682 246.005 334.682 246.574C334.682 247.142 335.081 247.602 335.574 247.602H345.683C346.176 247.602 346.575 247.142 346.575 246.574C346.575 246.005 346.176 245.545 345.683 245.545Z" fill="white"/>
<path d="M312.301 250.36H310.674C310.181 250.36 309.781 250.821 309.781 251.389C309.781 251.957 310.181 252.418 310.674 252.418H312.301C312.794 252.418 313.193 251.957 313.193 251.389C313.193 250.821 312.794 250.36 312.301 250.36Z" fill="white"/>
<path d="M330.901 250.36H329.275C328.782 250.36 328.382 250.821 328.382 251.389C328.382 251.957 328.782 252.418 329.275 252.418H330.901C331.394 252.418 331.794 251.957 331.794 251.389C331.794 250.821 331.394 250.36 330.901 250.36Z" fill="white"/>
<path d="M336.172 250.36H334.545C334.052 250.36 333.652 250.821 333.652 251.389C333.652 251.957 334.052 252.418 334.545 252.418H336.172C336.665 252.418 337.064 251.957 337.064 251.389C337.064 250.821 336.665 250.36 336.172 250.36Z" fill="white"/>
<path d="M325.842 250.189H315.734C315.241 250.189 314.841 250.649 314.841 251.218C314.841 251.786 315.241 252.246 315.734 252.246H325.842C326.335 252.246 326.735 251.786 326.735 251.218C326.735 250.649 326.335 250.189 325.842 250.189Z" fill="white"/>
<path d="M316.021 268.827H314.394C313.901 268.827 313.501 269.288 313.501 269.856C313.501 270.424 313.901 270.885 314.394 270.885H316.021C316.514 270.885 316.913 270.424 316.913 269.856C316.913 269.288 316.514 268.827 316.021 268.827Z" fill="white"/>
<path d="M321.291 268.827H319.665C319.171 268.827 318.772 269.288 318.772 269.856C318.772 270.424 319.171 270.885 319.665 270.885H321.291C321.784 270.885 322.184 270.424 322.184 269.856C322.184 269.288 321.784 268.827 321.291 268.827Z" fill="white"/>
<path d="M335.762 268.999H325.654C325.161 268.999 324.761 269.46 324.761 270.028C324.761 270.596 325.161 271.057 325.654 271.057H335.762C336.255 271.057 336.655 270.596 336.655 270.028C336.655 269.46 336.255 268.999 335.762 268.999Z" fill="white"/>
<path d="M297.42 268.827H295.794C295.301 268.827 294.901 269.288 294.901 269.856C294.901 270.424 295.301 270.885 295.794 270.885H297.42C297.913 270.885 298.313 270.424 298.313 269.856C298.313 269.288 297.913 268.827 297.42 268.827Z" fill="white"/>
<path d="M310.961 268.999H300.853C300.36 268.999 299.96 269.46 299.96 270.028C299.96 270.596 300.36 271.057 300.853 271.057H310.961C311.454 271.057 311.854 270.596 311.854 270.028C311.854 269.46 311.454 268.999 310.961 268.999Z" fill="white"/>
<path d="M302.38 264.183H300.754C300.261 264.183 299.861 264.644 299.861 265.212C299.861 265.78 300.261 266.241 300.754 266.241H302.38C302.873 266.241 303.273 265.78 303.273 265.212C303.273 264.644 302.873 264.183 302.38 264.183Z" fill="white"/>
<path d="M320.981 264.183H319.355C318.862 264.183 318.462 264.644 318.462 265.212C318.462 265.78 318.862 266.241 319.355 266.241H320.981C321.474 266.241 321.874 265.78 321.874 265.212C321.874 264.644 321.474 264.183 320.981 264.183Z" fill="white"/>
<path d="M326.251 264.183H324.625C324.132 264.183 323.732 264.644 323.732 265.212C323.732 265.78 324.132 266.241 324.625 266.241H326.251C326.744 266.241 327.144 265.78 327.144 265.212C327.144 264.644 326.744 264.183 326.251 264.183Z" fill="white"/>
<path d="M315.922 264.355H305.813C305.32 264.355 304.921 264.815 304.921 265.384C304.921 265.952 305.32 266.412 305.813 266.412H315.922C316.415 266.412 316.814 265.952 316.814 265.384C316.814 264.815 316.415 264.355 315.922 264.355Z" fill="white"/>
<path d="M307.34 259.539H305.714C305.221 259.539 304.821 260 304.821 260.568C304.821 261.136 305.221 261.597 305.714 261.597H307.34C307.834 261.597 308.233 261.136 308.233 260.568C308.233 260 307.834 259.539 307.34 259.539Z" fill="white"/>
<path d="M325.941 259.539H324.315C323.822 259.539 323.422 260 323.422 260.568C323.422 261.136 323.822 261.597 324.315 261.597H325.941C326.434 261.597 326.834 261.136 326.834 260.568C326.834 260 326.434 259.539 325.941 259.539Z" fill="white"/>
<path d="M331.211 259.539H329.585C329.092 259.539 328.692 260 328.692 260.568C328.692 261.136 329.092 261.597 329.585 261.597H331.211C331.704 261.597 332.104 261.136 332.104 260.568C332.104 260 331.704 259.539 331.211 259.539Z" fill="white"/>
<path d="M320.882 259.711H310.774C310.281 259.711 309.881 260.171 309.881 260.74C309.881 261.308 310.281 261.768 310.774 261.768H320.882C321.375 261.768 321.775 261.308 321.775 260.74C321.775 260.171 321.375 259.711 320.882 259.711Z" fill="white"/>
<path d="M312.301 254.895H310.674C310.181 254.895 309.781 255.356 309.781 255.924C309.781 256.492 310.181 256.953 310.674 256.953H312.301C312.794 256.953 313.193 256.492 313.193 255.924C313.193 255.356 312.794 254.895 312.301 254.895Z" fill="white"/>
<path d="M330.901 254.895H329.275C328.782 254.895 328.382 255.356 328.382 255.924C328.382 256.492 328.782 256.953 329.275 256.953H330.901C331.394 256.953 331.794 256.492 331.794 255.924C331.794 255.356 331.394 254.895 330.901 254.895Z" fill="white"/>
<path d="M336.172 254.895H334.545C334.052 254.895 333.652 255.356 333.652 255.924C333.652 256.492 334.052 256.953 334.545 256.953H336.172C336.665 256.953 337.064 256.492 337.064 255.924C337.064 255.356 336.665 254.895 336.172 254.895Z" fill="white"/>
<path d="M325.842 255.067H315.734C315.241 255.067 314.841 255.527 314.841 256.095C314.841 256.664 315.241 257.124 315.734 257.124H325.842C326.335 257.124 326.735 256.664 326.735 256.095C326.735 255.527 326.335 255.067 325.842 255.067Z" fill="white"/>
<path d="M288.774 323.255L281.139 309.348L305.103 287.333L314.995 274.705C316.28 273.065 317.916 271.841 319.74 271.158C321.564 270.474 323.512 270.354 325.389 270.81C327.265 271.265 329.005 272.28 330.435 273.753C331.865 275.227 332.934 277.107 333.536 279.205C334.427 282.315 334.235 285.702 333.001 288.652C331.766 291.603 329.585 293.884 326.918 295.017L311.277 301.657L288.774 323.255Z" fill="#FFB6B6"/>
<path d="M109.632 222.419V290.012H150.724V222.419C150.725 221.933 150.591 221.459 150.34 221.068C150.09 220.676 149.738 220.388 149.335 220.244C149.145 220.172 148.946 220.136 148.746 220.139H111.616C111.356 220.138 111.098 220.196 110.858 220.311C110.617 220.425 110.398 220.593 110.214 220.805C110.03 221.017 109.883 221.268 109.784 221.545C109.684 221.822 109.632 222.119 109.632 222.419ZM125.669 245.644C125.679 244.311 126.146 243.038 126.968 242.1C127.789 241.162 128.899 240.636 130.055 240.636C131.212 240.636 132.321 241.162 133.143 242.1C133.964 243.038 134.431 244.311 134.442 245.644V253.487C134.436 254.823 133.971 256.102 133.149 257.045C132.327 257.987 131.215 258.516 130.055 258.516C128.896 258.516 127.783 257.987 126.961 257.045C126.139 256.102 125.674 254.823 125.669 253.487V245.644Z" fill="#2F2E41"/>
<path d="M109.506 287.85V294.368C109.507 294.706 109.623 295.029 109.83 295.269C110.037 295.508 110.317 295.644 110.61 295.647H149.747C150.04 295.645 150.321 295.509 150.527 295.27C150.734 295.03 150.85 294.706 150.85 294.368V287.85H109.506Z" fill="#3F3D56"/>
<path d="M44.9873 120.582V243.996C44.9884 245.569 45.531 247.077 46.4961 248.189C47.4612 249.301 48.7698 249.927 50.1346 249.928H208.843C210.208 249.927 211.517 249.301 212.482 248.189C213.447 247.077 213.989 245.569 213.99 243.996V120.582C213.987 119.01 213.444 117.504 212.479 116.394C211.514 115.283 210.207 114.659 208.843 114.657H50.1346C48.771 114.659 47.4636 115.283 46.4988 116.394C45.5341 117.504 44.9906 119.01 44.9873 120.582Z" fill="#3F3D56"/>
<path d="M48.7107 122.117V242.474C48.712 243.314 49.0022 244.12 49.5178 244.714C50.0334 245.308 50.7324 245.643 51.4616 245.644H207.522C208.251 245.643 208.95 245.308 209.466 244.714C209.982 244.12 210.272 243.314 210.273 242.474V122.117C210.273 121.276 209.983 120.469 209.468 119.873C208.952 119.278 208.252 118.942 207.522 118.94H51.4616C50.7315 118.942 50.0319 119.278 49.5162 119.873C49.0004 120.469 48.7108 121.276 48.7107 122.117Z" fill="#272727"/>
<path d="M77.6727 295.205C77.8315 295.435 78.0335 295.62 78.2633 295.746C78.4931 295.873 78.7448 295.938 78.9996 295.937H171.845C172.099 295.936 172.35 295.871 172.579 295.745C172.808 295.619 173.01 295.435 173.17 295.208C173.33 294.981 173.444 294.715 173.504 294.431C173.564 294.147 173.568 293.85 173.515 293.564L172.074 285.675C172.014 285.353 171.886 285.054 171.7 284.804C171.514 284.554 171.277 284.362 171.01 284.245C170.817 284.158 170.612 284.113 170.404 284.113H80.4351C80.2276 284.113 80.022 284.158 79.8289 284.245C79.5621 284.362 79.325 284.554 79.1392 284.804C78.9534 285.054 78.8248 285.353 78.7651 285.675L77.3238 293.564C77.2726 293.85 77.2773 294.146 77.3376 294.43C77.398 294.714 77.5124 294.979 77.6727 295.205Z" fill="#2F2E41"/>
<path d="M202.457 135.52H56.4322C56.2804 135.516 56.136 135.444 56.0298 135.319C55.9237 135.194 55.8643 135.026 55.8643 134.851C55.8643 134.676 55.9237 134.508 56.0298 134.383C56.136 134.258 56.2804 134.186 56.4322 134.182H202.457C202.609 134.186 202.754 134.258 202.86 134.383C202.966 134.508 203.025 134.676 203.025 134.851C203.025 135.026 202.966 135.194 202.86 135.319C202.754 135.444 202.609 135.516 202.457 135.52Z" fill="#3F3D56"/>
<path d="M66.3724 130.765C68.2519 130.765 69.7756 128.97 69.7756 126.756C69.7756 124.542 68.2519 122.747 66.3724 122.747C64.4929 122.747 62.9692 124.542 62.9692 126.756C62.9692 128.97 64.4929 130.765 66.3724 130.765Z" fill="#3F3D56"/>
<path d="M78.1288 130.765C80.0083 130.765 81.5319 128.97 81.5319 126.756C81.5319 124.542 80.0083 122.747 78.1288 122.747C76.2492 122.747 74.7256 124.542 74.7256 126.756C74.7256 128.97 76.2492 130.765 78.1288 130.765Z" fill="#3F3D56"/>
<path d="M89.8854 130.765C91.7649 130.765 93.2885 128.97 93.2885 126.756C93.2885 124.542 91.7649 122.747 89.8854 122.747C88.0058 122.747 86.4822 124.542 86.4822 126.756C86.4822 128.97 88.0058 130.765 89.8854 130.765Z" fill="#3F3D56"/>
<path d="M195.378 123.738H187.028C186.863 123.743 186.706 123.822 186.591 123.958C186.475 124.094 186.411 124.276 186.411 124.467C186.411 124.657 186.475 124.84 186.591 124.976C186.706 125.112 186.863 125.19 187.028 125.195H195.378C195.544 125.192 195.703 125.114 195.819 124.978C195.936 124.842 196.001 124.658 196.001 124.467C196.001 124.275 195.936 124.092 195.819 123.955C195.703 123.819 195.544 123.741 195.378 123.738Z" fill="#3F3D56"/>
<path d="M195.378 126.473H187.028C186.863 126.478 186.706 126.556 186.59 126.692C186.475 126.828 186.41 127.011 186.41 127.202C186.41 127.392 186.475 127.575 186.59 127.711C186.706 127.847 186.863 127.926 187.028 127.93H195.378C195.544 127.928 195.703 127.85 195.82 127.714C195.937 127.577 196.003 127.393 196.003 127.202C196.003 127.01 195.937 126.826 195.82 126.69C195.703 126.554 195.544 126.476 195.378 126.473Z" fill="#3F3D56"/>
<path d="M195.378 129.209H187.028C186.863 129.213 186.706 129.292 186.591 129.428C186.475 129.564 186.411 129.747 186.411 129.937C186.411 130.127 186.475 130.31 186.591 130.446C186.706 130.582 186.863 130.661 187.028 130.665H195.378C195.544 130.662 195.703 130.584 195.819 130.448C195.936 130.312 196.001 130.128 196.001 129.937C196.001 129.745 195.936 129.562 195.819 129.425C195.703 129.289 195.544 129.211 195.378 129.209Z" fill="#3F3D56"/>
<path d="M396.683 290.711C396.935 291.556 397.413 292.288 398.048 292.8C398.684 293.313 399.444 293.581 400.219 293.565L415.37 293.116C416.152 293.098 416.907 292.79 417.524 292.236C418.14 291.683 418.585 290.915 418.791 290.046L420.935 263.627C421.696 264.024 422.524 264.22 423.359 264.201C424.084 264.18 424.799 263.994 425.462 263.655C426.125 263.316 426.724 262.829 427.224 262.223C427.724 261.617 428.116 260.904 428.377 260.123C428.637 259.343 428.762 258.511 428.744 257.675C428.726 256.839 428.565 256.016 428.27 255.252C427.976 254.487 427.554 253.797 427.028 253.221C426.502 252.645 425.883 252.194 425.206 251.893C424.529 251.593 423.807 251.449 423.082 251.47C422.748 251.469 422.415 251.509 422.089 251.589C421.734 251.146 421.302 250.794 420.822 250.556C420.342 250.317 419.824 250.197 419.301 250.203L395.995 250.896C395.802 250.905 395.609 250.932 395.42 250.979C394.909 251.088 394.424 251.323 393.998 251.667C393.573 252.011 393.216 252.456 392.952 252.972C392.687 253.488 392.522 254.063 392.467 254.659C392.412 255.255 392.469 255.857 392.633 256.425L396.683 290.711ZM421.375 261.833L422.901 255.537C423.074 254.81 423.078 254.043 422.912 253.313C422.986 253.313 423.051 253.272 423.126 253.272C424.172 253.247 425.184 253.701 425.94 254.535C426.696 255.368 427.134 256.514 427.158 257.719C427.183 258.924 426.792 260.092 426.07 260.965C425.349 261.839 424.357 262.347 423.311 262.378C422.634 262.403 421.965 262.214 421.375 261.833Z" fill="#212529"/>
<path d="M395.42 250.979C395.916 254.25 401.499 256.55 408.211 256.15C414.384 255.823 419.431 253.325 420.356 250.365C420.014 250.248 419.658 250.194 419.301 250.203L395.995 250.896C395.801 250.905 395.609 250.932 395.42 250.979Z" fill="#8E48FF"/>
<path d="M409.442 276.193C409.472 276.184 409.502 276.169 409.528 276.149L412.818 273.667C412.858 273.637 412.891 273.596 412.913 273.548C412.936 273.5 412.948 273.446 412.948 273.392C412.948 273.337 412.936 273.283 412.914 273.235C412.891 273.187 412.858 273.146 412.819 273.116L409.399 270.535C409.367 270.511 409.332 270.494 409.295 270.486C409.258 270.478 409.22 270.478 409.183 270.487C409.146 270.496 409.111 270.513 409.08 270.537C409.049 270.561 409.022 270.593 409.002 270.629C408.981 270.665 408.967 270.706 408.96 270.748C408.953 270.791 408.953 270.835 408.961 270.877C408.969 270.92 408.984 270.96 409.005 270.996C409.026 271.031 409.054 271.062 409.085 271.086L412.14 273.391L409.215 275.598C409.158 275.64 409.117 275.705 409.097 275.779C409.078 275.854 409.082 275.934 409.11 276.006C409.137 276.077 409.185 276.135 409.246 276.169C409.307 276.204 409.376 276.212 409.442 276.193Z" fill="#8E48FF"/>
<path d="M404.245 276.469C404.3 276.453 404.35 276.418 404.388 276.369C404.426 276.32 404.45 276.259 404.458 276.194C404.466 276.129 404.457 276.063 404.431 276.004C404.406 275.945 404.366 275.896 404.317 275.864L401.284 273.86L404.216 271.351C404.246 271.325 404.271 271.293 404.29 271.255C404.31 271.218 404.322 271.177 404.328 271.134C404.333 271.092 404.331 271.048 404.322 271.006C404.313 270.964 404.297 270.925 404.274 270.89C404.252 270.855 404.224 270.826 404.192 270.804C404.16 270.782 404.124 270.767 404.087 270.761C404.05 270.754 404.012 270.756 403.975 270.767C403.939 270.778 403.905 270.796 403.875 270.822L400.593 273.631C400.554 273.664 400.524 273.707 400.504 273.757C400.484 273.806 400.475 273.861 400.478 273.915C400.48 273.97 400.495 274.023 400.52 274.069C400.545 274.116 400.58 274.154 400.621 274.182L404.032 276.435C404.097 276.478 404.173 276.49 404.245 276.469Z" fill="#8E48FF"/>
<path d="M409.115 278.368C409.142 278.36 409.169 278.347 409.193 278.329C409.225 278.307 409.253 278.277 409.275 278.243C409.297 278.208 409.313 278.168 409.322 278.126C409.331 278.084 409.333 278.04 409.327 277.997C409.321 277.955 409.308 277.914 409.289 277.877L404.624 269.04C404.585 268.965 404.521 268.912 404.448 268.891C404.374 268.871 404.296 268.885 404.231 268.93C404.167 268.976 404.12 269.049 404.102 269.134C404.084 269.219 404.096 269.308 404.136 269.383L408.8 278.22C408.832 278.28 408.88 278.327 408.936 278.353C408.993 278.38 409.055 278.385 409.115 278.368Z" fill="#8E48FF"/>
<path d="M146.892 171.9H121.619C120.588 171.9 119.752 172.863 119.752 174.051V176.896C119.752 178.085 120.588 179.048 121.619 179.048H146.892C147.923 179.048 148.759 178.085 148.759 176.896V174.051C148.759 172.863 147.923 171.9 146.892 171.9Z" fill="#8E48FF"/>
<path d="M161.624 186.196H106.887C105.856 186.196 105.02 187.159 105.02 188.347V191.192C105.02 192.38 105.856 193.344 106.887 193.344H161.624C162.655 193.344 163.491 192.38 163.491 191.192V188.347C163.491 187.159 162.655 186.196 161.624 186.196Z" fill="#E6E6E6"/>
<path d="M161.624 200.491H106.887C105.856 200.491 105.02 201.455 105.02 202.643V205.488C105.02 206.676 105.856 207.639 106.887 207.639H161.624C162.655 207.639 163.491 206.676 163.491 205.488V202.643C163.491 201.455 162.655 200.491 161.624 200.491Z" fill="#E6E6E6"/>
<path d="M166.264 248.363L166.388 248.814L166.395 248.829L170.127 261.903L174.42 276.97L182.497 305.284L182.575 309.682V309.697L183.175 345.078L181.511 349.875L183.384 357.739C183.384 357.739 182.523 345.851 177.904 352.678C175.287 356.557 172.227 360.527 169.716 364.249C173.376 365.955 177.095 367.499 180.872 368.88C181.688 369.181 182.51 369.466 183.332 369.752C183.508 369.812 183.684 369.872 183.86 369.933C196.382 374.2 209.328 376.598 222.38 377.067C223.058 377.09 223.724 377.105 224.37 377.12C224.598 377.128 224.82 377.135 225.042 377.135C225.772 377.143 226.497 377.15 227.227 377.15C228.702 377.15 230.17 377.125 231.631 377.075C242.448 376.724 253.202 375.048 263.711 372.075C263.639 367.076 263.444 361.234 263.163 354.994C263.033 351.934 260.103 348.618 259.927 345.415C259.803 343.01 262.432 340.746 262.295 338.303C261.408 323.259 260.299 329.034 259.477 318.381C259.392 317.335 259.314 316.336 259.242 315.381C258.714 308.539 258.348 304.261 258.348 304.261L261.858 278.767L267.371 238.739L266.947 237.935L266.471 237.664L237.392 221.079L235.813 216.417C235.353 215.074 234.555 213.921 233.521 213.105C232.488 212.289 231.266 211.848 230.013 211.839L210.858 211.749C209.864 211.743 208.883 212.011 207.997 212.531C207.11 213.05 206.344 213.805 205.762 214.733L200.575 223.011L166.264 248.363Z" fill="#3F3D56"/>
<path d="M186.914 298.983L182.575 309.682L179.613 316.99L174.518 347.732L171.967 350.852L169.781 339.807L146.905 345.66C146.155 340.856 146.704 345.822 146.241 340.552C146.372 340.402 146.509 340.251 146.646 340.101C147.011 339.71 147.318 339.342 147.311 338.988C147.05 320.809 147.833 289.871 154.371 271.128C155.394 268.068 156.744 265.166 158.389 262.489C158.52 262.287 158.644 262.083 158.768 261.881C161.782 257.016 163.687 252.227 166.388 248.821V248.814C166.405 248.798 166.42 248.78 166.434 248.761C166.444 248.755 166.453 248.748 166.46 248.739L185.015 237.401L185.811 263.174L186.379 281.699L186.914 298.983Z" fill="#3F3D56"/>
<path d="M253.82 302.022L259.24 315.384L261.131 320.038L266.225 350.777L268.768 353.89L270.959 342.847L271.988 342.604L290.552 338.173L295.962 357.976C297.182 355.634 297.662 352.879 297.322 350.177C296.983 347.474 295.843 344.989 294.097 343.143C293.728 342.758 293.42 342.383 293.428 342.028C293.736 320.646 292.602 281.603 282.352 265.534C279.097 260.434 277.144 255.355 274.302 251.807C274.293 251.797 274.293 251.786 274.284 251.786L267.369 238.738L266.947 237.937L266.472 237.664L253.82 302.022Z" fill="#3F3D56"/>
<path d="M220.989 205.467C235.063 205.467 246.473 192.319 246.473 176.1C246.473 159.882 235.063 146.734 220.989 146.734C206.914 146.734 195.505 159.882 195.505 176.1C195.505 192.319 206.914 205.467 220.989 205.467Z" fill="#FFB6B6"/>
<path d="M255.433 155.588C255.236 155.345 254.998 155.15 254.733 155.015C254.469 154.88 254.184 154.808 253.895 154.804L254.278 153.578C254.403 153.192 254.437 152.774 254.376 152.368C254.315 151.962 254.161 151.582 253.931 151.267C253.7 150.952 253.401 150.713 253.064 150.574C252.727 150.436 252.365 150.404 252.013 150.48L250.618 150.79L250.749 149.716C250.8 149.316 250.759 148.907 250.631 148.531C250.503 148.154 250.292 147.823 250.019 147.569C249.746 147.315 249.42 147.147 249.074 147.082C248.728 147.017 248.373 147.057 248.044 147.198C247.745 147.334 247.423 147.391 247.103 147.364C246.782 147.338 246.47 147.23 246.191 147.047C245.91 146.869 245.667 146.623 245.477 146.326C245.287 146.029 245.156 145.688 245.093 145.326L244.607 142.624L244.555 142.479C242.188 137.932 237.635 134.623 232.065 133.411C227.106 132.323 222.022 132.877 217.12 133.397C215.176 133.608 212.979 133.846 211.149 135.137C209.594 136.245 208.278 138.459 208.547 140.693C203.714 138.986 198.533 142.394 195.965 146.691C192.922 151.805 192.425 158.211 192.344 163.22C192.127 175.07 194.249 184.764 198.636 192.04C198.956 192.568 199.036 193.668 199.671 194.037L199.539 193.793C200.248 194.202 200.969 194.861 200.7 195.566C199.928 197.596 205.058 202.084 208.673 203.567C215.267 206.276 224.035 206.045 230.2 205.07L230.417 203.389C232.642 203.04 234.209 202.374 234.65 201.333C235.427 200.568 236.091 199.883 236.668 199.25L236.674 199.244C236.686 199.231 236.709 199.211 236.72 199.198C239.505 196.12 240.151 194.367 240.443 191.698C240.723 189.081 240.226 186.425 239.717 184.033C250.435 185.944 235.496 170.878 245.482 167.965C245.596 167.924 245.713 167.891 245.831 167.866C246.122 167.787 246.414 167.708 246.694 167.616C248.045 167.193 249.339 166.557 250.538 165.724C253.329 163.767 254.249 161.17 255.691 158.244C255.899 157.827 255.986 157.345 255.939 156.867C255.893 156.39 255.716 155.941 255.433 155.588Z" fill="#2F2E41"/>
<path d="M311.121 304.113C311.116 305.266 311.104 306.881 311.059 308.878C311.053 309.155 311.047 309.438 311.041 309.728C310.967 313.399 310.893 316.477 310.773 319.897C310.767 320.134 310.761 320.365 310.75 320.602C310.59 325.374 310.338 330.93 309.903 339.728C309.097 355.981 307.69 341.962 306.277 347.663C306.209 347.947 306.134 348.283 306.066 348.678C305.852 350.113 305.491 351.513 304.99 352.85C304.241 353.364 303.469 353.858 302.708 354.353C300.541 355.743 298.339 357.081 296.12 358.353C294.873 359.065 293.621 359.764 292.362 360.436C292.162 360.541 291.968 360.647 291.773 360.746C285.33 364.18 278.69 367.1 271.899 369.485C270.572 369.946 269.251 370.394 267.913 370.809C266.517 371.257 265.122 371.679 263.709 372.075C253.2 375.048 242.447 376.725 231.63 377.077C230.172 377.13 228.702 377.149 227.226 377.149C226.494 377.149 225.773 377.143 225.041 377.136C224.818 377.136 224.595 377.13 224.372 377.123C223.726 377.103 223.057 377.09 222.382 377.07C209.33 376.601 196.385 374.202 183.863 369.933L183.331 369.755C182.508 369.465 181.69 369.181 180.872 368.878C177.097 367.501 173.378 365.959 169.714 364.252C166.917 362.953 164.153 361.561 161.421 360.073C161.396 360.066 161.373 360.052 161.352 360.034C160.78 359.731 160.203 359.414 159.631 359.091C159.556 359.045 159.476 358.999 159.396 358.953C157.263 357.753 155.152 356.497 153.065 355.183C151.309 350.537 148.838 349.647 147.306 345.561C146.86 344.347 146.537 343.077 146.345 341.778C146.345 341.765 146.339 341.752 146.339 341.732C146.499 344.183 145.659 337.382 146.333 341.705C146.328 341.626 146.322 341.541 146.316 341.442C146.299 341.204 146.276 340.915 146.242 340.552C144.28 318.48 144.406 293.238 143.554 272.439C143.497 271.094 143.438 269.807 143.377 268.576C143.36 268.168 143.337 267.766 143.314 267.37C143.354 267.252 143.4 267.127 143.451 267.008C143.462 266.974 143.475 266.941 143.491 266.909C143.508 266.868 143.527 266.829 143.548 266.79C143.56 266.771 143.577 266.744 143.588 266.725C143.597 266.702 143.606 266.68 143.617 266.659C143.668 266.566 143.725 266.468 143.788 266.375C143.817 266.336 143.84 266.303 143.868 266.27C143.888 266.236 143.911 266.205 143.937 266.178C143.955 266.146 143.976 266.117 144 266.092C144.023 266.066 144.046 266.033 144.074 266C144.087 265.979 144.102 265.961 144.12 265.947C144.165 265.887 144.215 265.832 144.269 265.782C144.473 265.566 144.691 265.367 144.921 265.189C145.001 265.13 145.087 265.07 145.167 265.004C145.743 264.607 146.35 264.272 146.98 264.003C147.197 263.91 147.414 263.825 147.649 263.732C147.735 263.706 147.815 263.673 147.901 263.64C148.026 263.594 148.152 263.548 148.284 263.515C148.936 263.291 149.639 263.1 150.4 262.922C150.491 262.902 150.589 262.882 150.686 262.856C150.823 262.823 150.966 262.797 151.109 262.77C151.303 262.731 151.504 262.691 151.704 262.652C153.402 262.342 155.33 262.111 157.457 261.96C157.658 261.946 157.858 261.933 158.058 261.92C158.292 261.907 158.527 261.894 158.767 261.881C158.967 261.867 159.173 261.861 159.379 261.854C159.579 261.841 159.785 261.834 159.997 261.828C160.574 261.808 161.169 261.788 161.775 261.775C163.503 261.736 165.321 261.749 167.232 261.795C168.118 261.821 169.022 261.848 169.948 261.894C170.011 261.894 170.068 261.9 170.125 261.9C170.932 261.933 171.744 261.973 172.579 262.025C173.162 262.058 173.751 262.091 174.34 262.131C174.895 262.171 175.456 262.21 176.022 262.256C176.462 262.283 176.903 262.322 177.349 262.355C177.726 262.388 178.104 262.421 178.481 262.447L178.996 262.487C179.276 262.513 179.556 262.533 179.842 262.566C180.472 262.625 181.101 262.685 181.741 262.744C182.376 262.81 183.022 262.876 183.669 262.942C184.315 263.008 184.967 263.08 185.619 263.153C185.687 263.159 185.75 263.166 185.813 263.172C186.408 263.245 187.003 263.311 187.603 263.383C187.741 263.396 187.884 263.41 188.021 263.429C188.593 263.496 189.177 263.573 189.755 263.644C189.932 263.666 190.109 263.687 190.287 263.71C190.739 263.767 191.185 263.816 191.641 263.877C192.242 263.957 192.854 264.029 193.448 264.121C193.912 264.181 194.375 264.24 194.838 264.306C195.564 264.405 196.302 264.51 197.04 264.622C197.32 264.662 197.601 264.701 197.881 264.747C199.985 265.051 202.113 265.387 204.275 265.736C207.552 266.27 210.881 266.85 214.232 267.476C217.589 268.102 220.965 268.763 224.361 269.46C225.219 269.638 226.077 269.816 226.94 270C227.329 270.086 227.718 270.171 228.107 270.257C228.77 270.395 229.434 270.54 230.097 270.685C230.761 270.83 231.424 270.975 232.087 271.127C232.877 271.305 233.672 271.483 234.461 271.661C239.66 272.847 244.83 274.113 249.874 275.437C250.704 275.655 251.533 275.879 252.356 276.096C254.004 276.538 255.635 276.986 257.252 277.441C257.698 277.559 258.139 277.685 258.579 277.81C259.677 278.126 260.775 278.443 261.856 278.766L262.045 278.825C262.84 279.049 263.618 279.28 264.395 279.517C266.231 280.07 268.037 280.631 269.811 281.197C270.99 281.573 272.154 281.953 273.306 282.338C275.027 282.911 276.715 283.491 278.356 284.077C278.762 284.222 279.168 284.367 279.568 284.506C280.769 284.934 281.953 285.369 283.103 285.804C284.018 286.147 284.91 286.496 285.791 286.846C286.672 287.195 287.535 287.544 288.382 287.893C288.925 288.118 289.463 288.355 290 288.579C290.772 288.908 291.533 289.238 292.277 289.567C292.505 289.666 292.728 289.772 292.951 289.871C293.094 289.943 293.232 290.002 293.369 290.068C293.638 290.194 293.912 290.312 294.175 290.437C294.444 290.556 294.707 290.681 294.97 290.813C295.228 290.932 295.491 291.057 295.742 291.182C296 291.301 296.251 291.426 296.503 291.558C296.715 291.657 296.921 291.762 297.121 291.868C297.527 292.072 297.933 292.276 298.328 292.487C298.522 292.593 298.716 292.691 298.911 292.797L299.357 293.034C299.42 293.074 299.483 293.107 299.546 293.14C299.689 293.219 299.837 293.304 299.98 293.383C300.312 293.561 300.638 293.752 300.958 293.93C301.387 294.181 301.805 294.431 302.205 294.675C302.611 294.926 303.006 295.176 303.383 295.42C303.446 295.459 303.503 295.499 303.566 295.538C303.652 295.591 303.738 295.651 303.824 295.703C304.115 295.894 304.396 296.092 304.676 296.283C305.225 296.672 305.745 297.054 306.231 297.437C306.34 297.522 306.443 297.608 306.552 297.687C306.912 297.984 307.255 298.274 307.576 298.57C307.576 298.577 307.576 298.577 307.581 298.577C307.69 298.669 307.793 298.768 307.896 298.86C307.982 298.952 308.073 299.031 308.159 299.124C308.456 299.42 308.731 299.704 308.982 299.994C309.067 300.083 309.147 300.178 309.223 300.277C309.256 300.309 309.287 300.344 309.314 300.383C309.429 300.514 309.531 300.646 309.629 300.778C309.644 300.796 309.657 300.816 309.669 300.837C309.806 301.022 309.932 301.206 310.052 301.391C310.109 301.483 310.172 301.575 310.224 301.668C310.292 301.78 310.361 301.898 310.418 302.01C310.469 302.103 310.515 302.202 310.561 302.294C310.682 302.531 310.786 302.78 310.87 303.039C310.934 303.213 310.986 303.394 311.024 303.579C311.068 303.754 311.1 303.932 311.121 304.113Z" fill="#2F2E41"/>
<path opacity="0.2" d="M311.121 304.113C311.116 305.266 311.104 306.881 311.058 308.878C311.053 309.155 311.041 309.438 311.036 309.728C310.978 312.529 310.893 315.989 310.772 319.897C310.767 320.134 310.761 320.365 310.75 320.602C310.589 325.374 310.338 330.93 309.903 339.728C309.097 355.981 307.69 341.962 306.277 347.663C302.354 344.882 298.053 341.969 293.455 338.977C292.625 338.436 291.788 337.894 290.944 337.349C281.747 331.437 271.476 325.242 260.752 319.106C260.329 318.863 259.9 318.619 259.477 318.381C234.913 304.39 208.101 290.78 186.379 281.698C182.187 279.945 178.184 278.364 174.42 276.973C166.494 274.053 159.642 272.01 154.369 271.127C148.878 270.204 145.087 270.534 143.554 272.439C143.497 271.094 143.437 269.807 143.376 268.577C143.354 268.168 143.331 267.766 143.308 267.37C143.343 267.262 143.389 267.158 143.433 267.054C143.44 267.039 143.444 267.023 143.451 267.008C143.462 266.974 143.475 266.941 143.491 266.909C143.508 266.868 143.527 266.829 143.548 266.79C143.567 266.744 143.59 266.7 143.617 266.659C143.668 266.566 143.725 266.468 143.788 266.375C143.835 266.306 143.884 266.24 143.937 266.178C143.955 266.146 143.976 266.117 144 266.092C144.023 266.065 144.046 266.033 144.074 266C144.086 265.979 144.102 265.961 144.12 265.947C144.165 265.887 144.215 265.832 144.269 265.782C144.473 265.566 144.691 265.367 144.921 265.189C145.001 265.13 145.087 265.07 145.167 265.004C145.743 264.607 146.35 264.272 146.98 264.003C147.197 263.91 147.414 263.825 147.649 263.732C147.735 263.706 147.815 263.673 147.9 263.64C148.026 263.594 148.152 263.548 148.284 263.515C148.936 263.291 149.639 263.1 150.4 262.922C150.628 262.869 150.869 262.816 151.109 262.77C151.303 262.731 151.504 262.691 151.704 262.652C153.402 262.342 155.33 262.111 157.457 261.96C157.657 261.946 157.858 261.933 158.058 261.92C158.292 261.907 158.527 261.894 158.767 261.88C158.967 261.867 159.173 261.861 159.379 261.854C159.579 261.841 159.785 261.834 159.997 261.828C160.574 261.808 161.169 261.788 161.775 261.775C163.502 261.742 165.321 261.755 167.231 261.801C168.118 261.821 169.022 261.854 169.948 261.9C170.005 261.9 170.068 261.907 170.125 261.907C170.932 261.933 171.75 261.979 172.579 262.025C173.162 262.058 173.751 262.091 174.34 262.131C174.895 262.17 175.456 262.21 176.022 262.256C176.462 262.283 176.903 262.322 177.349 262.355C177.726 262.388 178.104 262.421 178.481 262.447C178.933 262.487 179.385 262.526 179.842 262.566C180.471 262.625 181.1 262.685 181.741 262.744C182.376 262.81 183.022 262.876 183.668 262.942C184.315 263.007 184.967 263.08 185.619 263.152C185.687 263.159 185.75 263.166 185.813 263.172C186.408 263.245 187.003 263.311 187.603 263.383C190.932 263.772 194.358 264.227 197.881 264.747C199.985 265.057 202.117 265.389 204.275 265.743C207.552 266.276 210.88 266.856 214.232 267.476C217.589 268.102 220.965 268.763 224.361 269.46C225.219 269.638 226.076 269.816 226.94 270C227.992 270.224 229.045 270.453 230.097 270.685C230.761 270.83 231.424 270.975 232.087 271.127C232.877 271.305 233.672 271.483 234.461 271.661C239.66 272.847 244.83 274.113 249.874 275.437C250.703 275.655 251.533 275.879 252.356 276.096C254.003 276.538 255.635 276.986 257.252 277.441C257.698 277.566 258.138 277.691 258.579 277.816C259.683 278.133 260.775 278.449 261.856 278.766V278.772C261.919 278.785 261.982 278.805 262.045 278.825C262.834 279.056 263.617 279.286 264.395 279.523C266.231 280.077 268.037 280.635 269.811 281.197C270.99 281.58 272.156 281.955 273.306 282.338C275.027 282.918 276.714 283.498 278.356 284.077C278.762 284.222 279.168 284.367 279.568 284.506C280.769 284.941 281.948 285.374 283.103 285.804C284.018 286.147 284.91 286.496 285.791 286.846C286.672 287.195 287.535 287.544 288.382 287.893C288.931 288.118 289.468 288.348 290 288.572C290.778 288.902 291.533 289.231 292.276 289.567C292.505 289.666 292.728 289.772 292.951 289.871C293.369 290.055 293.775 290.246 294.175 290.437C294.444 290.556 294.707 290.681 294.97 290.813C295.228 290.932 295.491 291.057 295.742 291.182C296 291.301 296.251 291.426 296.503 291.558C296.715 291.657 296.921 291.762 297.121 291.868C297.527 292.072 297.933 292.276 298.327 292.487C298.522 292.593 298.716 292.691 298.911 292.797L299.357 293.034C299.42 293.074 299.483 293.107 299.546 293.14C300.032 293.403 300.501 293.667 300.958 293.93C301.387 294.181 301.805 294.431 302.205 294.675C302.68 294.965 303.132 295.249 303.566 295.538C303.652 295.591 303.738 295.651 303.824 295.703C304.115 295.894 304.396 296.092 304.676 296.283C305.225 296.672 305.745 297.054 306.231 297.437C306.712 297.819 307.158 298.194 307.575 298.57C307.575 298.577 307.575 298.577 307.581 298.577C307.781 298.761 307.976 298.946 308.159 299.124C308.456 299.42 308.731 299.704 308.982 299.994C309.067 300.083 309.147 300.178 309.223 300.277C309.256 300.309 309.286 300.344 309.314 300.383C309.434 300.534 309.554 300.686 309.669 300.837C309.806 301.022 309.932 301.206 310.052 301.391C310.109 301.483 310.172 301.575 310.223 301.668C310.292 301.78 310.361 301.898 310.418 302.01C310.469 302.103 310.515 302.202 310.561 302.294C310.682 302.531 310.786 302.78 310.87 303.039C310.932 303.214 310.984 303.395 311.024 303.579C311.067 303.754 311.1 303.932 311.121 304.113Z" fill="black"/>
</g>
<defs>
<clipPath id="clip0_543_59">
<rect width="450" height="377.15" fill="white"/>
</clipPath>
</defs>
</svg>
